{"title":"Sexy German Teen Room Service Girl Getting Fucked","uid":8800380,"size":113813628,"categoryP":"porn","categoryS":"other","magnet":"?xt=urn:btih:2ee889cc2ca32c9fe91028b5db59f89ea3ed0501&amp;dn=Sexy+German+Teen+Room+Service+Girl+Getting+Fucked&amp;tr=udp%3A%2F%2Ftracker.openbittorrent.com%3A80&amp;tr=udp%3A%2F%2Fopen.demonii.com%3A1337&amp;tr=udp%3A%2F%2Ftracker.coppersurfer.tk%3A6969&amp;tr=udp%3A%2F%2Fexodus.desync.com%3A6969","seeders":0,"leechers":0,"uploader":"raju0341","files":1,"time":1376184659,"description":" &lt;a href=&quot;http://s23.postimg.org/yx0ftgxm3/Sexy_German_Teen_Room_Service_Girl_Getting_f**ke.jpg&quot; rel=&quot;nofollow&quot; target=&quot;_NEW&quot;&gt;http://s23.postimg.org/yx0ftgxm3/Sexy_German_Teen_Room_Service_Girl_Getting_f**ke.jpg&lt;/a&gt;\n\n\n\nGeneral\n     Format : AVI\n     Format/Info : Audio Video Interleave\n     File size : 109 MiB\n     Duration : 19mn 58s\n     Overall bit rate mode : Variable\n     Overall bit rate : 760 Kbps\n  Video #0\n     ID : 0\n     Format : MPEG-4 Visual\n     Format profile : Simple@L0\n     Format settings, BVOP : No\n     Format settings, QPel : No\n     Format settings, GMC : No warppoints\n     Format settings, Matrix : Default (H.263)\n     Codec ID : XVID\n     Codec ID/Hint : XviD\n     Duration : 19mn 58s\n     Bit rate : 614 Kbps\n     Width : 512 pixels\n     Height : 384 pixels\n     Display aspect ratio : 4:3\n     Frame rate : 25.000 fps\n     Color space : YUV\n     Chroma subsampling : 4:2:0\n     Bit depth : 8 bits\n     Scan type : Progressive\n     Compression mode : Lossy\n     Bits/(Pixel*Frame) : 0.125\n     Stream size : 87.7 MiB (81%)\n     Writing library : XviD 1.0.3 (UTC 2004-12-20)\n  Audio #1\n     ID : 1\n     Format : MPEG Audio\n     Format version : Version 1\n     Format profile : Layer 3\n     Mode : Joint stereo\n     Mode extension : MS Stereo\n     Codec ID : 55\n     Codec ID/Hint : MP3\n     Duration : 11mn 59s\n     Source duration : 20mn 19s\n     Bit rate mode : Variable\n     Bit rate : 128 Kbps\n     Channel(s) : 2 channels\n     Sampling rate : 48.0 KHz\n     Compression mode : Lossy\n     Stream size : 18.7 MiB (17%)\n     Alignment : Aligned on interleaves\n     Interleave, duration : 24 ms (0.60 video frame)","torrent":{"xt":"urn:btih:2ee889cc2ca32c9fe91028b5db59f89ea3ed0501","amp;dn":"Sexy+German+Teen+Room+Service+Girl+Getting+Fucked","amp;tr":["udp%3A%2F%2Ftracker.openbittorrent.com%3A80","udp%3A%2F%2Fopen.demonii.com%3A1337","udp%3A%2F%2Ftracker.coppersurfer.tk%3A6969","udp%3A%2F%2Fexodus.desync.com%3A6969"],"infoHash":"2ee889cc2ca32c9fe91028b5db59f89ea3ed0501","infoHashBuffer":{"type":"Buffer","data":[46,232,137,204,44,163,44,159,233,16,40,181,219,89,248,158,163,237,5,1]},"announce":[],"urlList":[]}}